<svg xmlns="http://www.w3.org/2000/svg" viewBox="0 0 900 520" role="img" aria-labelledby="title"><title>Tela de alertas de segurança</title><rect width="900" height="520" rx="28" fill="#dcfce7"/><rect x="54" y="42" width="792" height="436" rx="18" fill="#fff"/><rect x="54" y="42" width="792" height="58" rx="18" fill="#166534"/><circle cx="88" cy="71" r="7" fill="#bbf7d0"/><circle cx="112" cy="71" r="7" fill="#bbf7d0"/><circle cx="136" cy="71" r="7" fill="#bbf7d0"/><rect x="92" y="132" width="250" height="22" rx="11" fill="#14532d"/><rect x="92" y="184" width="710" height="58" rx="12" fill="#fef2f2"/><circle cx="128" cy="213" r="14" fill="#ef4444"/><rect x="162" y="202" width="300" height="12" rx="6" fill="#fca5a5"/><rect x="162" y="222" width="180" height="8" rx="4" fill="#fecaca"/><rect x="92" y="262" width="710" height="58" rx="12" fill="#fffbeb"/><circle cx="128" cy="291" r="14" fill="#f59e0b"/><rect x="162" y="280" width="260" height="12" rx="6" fill="#fcd34d"/><rect x="162" y="300" width="210" height="8" rx="4" fill="#fde68a"/><rect x="92" y="340" width="710" height="58" rx="12" fill="#ecfdf5"/><circle cx="128" cy="369" r="14" fill="#22c55e"/><rect x="162" y="358" width="286" height="12" rx="6" fill="#86efac"/><rect x="162" y="378" width="160" height="8" rx="4" fill="#bbf7d0"/></svg>