<svg xmlns="http://www.w3.org/2000/svg" viewBox="0 0 900 520" role="img" aria-labelledby="title"><title>Tela de notícias</title><rect width="900" height="520" rx="28" fill="#fee2e2"/><rect x="54" y="42" width="792" height="436" rx="18" fill="#fff"/><rect x="54" y="42" width="792" height="58" rx="18" fill="#991b1b"/><circle cx="88" cy="71" r="7" fill="#fecaca"/><circle cx="112" cy="71" r="7" fill="#fecaca"/><circle cx="136" cy="71" r="7" fill="#fecaca"/><rect x="92" y="132" width="270" height="22" rx="11" fill="#7f1d1d"/><rect x="92" y="184" width="360" height="186" rx="14" fill="#fee2e2"/><path d="m122 326 76-98 54 62 48-42 112 122H122Z" fill="#fca5a5"/><circle cx="330" cy="236" r="24" fill="#ef4444"/><rect x="486" y="184" width="316" height="14" rx="7" fill="#cbd5e1"/><rect x="486" y="214" width="254" height="10" rx="5" fill="#e2e8f0"/><rect x="486" y="264" width="316" height="14" rx="7" fill="#cbd5e1"/><rect x="486" y="294" width="220" height="10" rx="5" fill="#e2e8f0"/><rect x="486" y="344" width="316" height="14" rx="7" fill="#cbd5e1"/><rect x="486" y="374" width="274" height="10" rx="5" fill="#e2e8f0"/></svg>