<svg xmlns="http://www.w3.org/2000/svg" viewBox="0 0 900 520" role="img" aria-labelledby="title"><title>Tela da comunidade</title><rect width="900" height="520" rx="28" fill="#ede9fe"/><rect x="54" y="42" width="792" height="436" rx="18" fill="#fff"/><rect x="54" y="42" width="792" height="58" rx="18" fill="#5b21b6"/><circle cx="88" cy="71" r="7" fill="#ddd6fe"/><circle cx="112" cy="71" r="7" fill="#ddd6fe"/><circle cx="136" cy="71" r="7" fill="#ddd6fe"/><rect x="96" y="132" width="472" height="78" rx="14" fill="#f5f3ff"/><circle cx="132" cy="171" r="20" fill="#c4b5fd"/><rect x="172" y="158" width="220" height="12" rx="6" fill="#8b5cf6"/><rect x="172" y="180" width="330" height="9" rx="4" fill="#ddd6fe"/><rect x="96" y="234" width="472" height="78" rx="14" fill="#faf5ff"/><circle cx="132" cy="273" r="20" fill="#ddd6fe"/><rect x="172" y="260" width="180" height="12" rx="6" fill="#a78bfa"/><rect x="172" y="282" width="280" height="9" rx="4" fill="#e9d5ff"/><rect x="614" y="132" width="184" height="180" rx="14" fill="#f5f3ff"/><circle cx="706" cy="190" r="34" fill="#c4b5fd"/><circle cx="674" cy="272" r="14" fill="#8b5cf6"/><circle cx="706" cy="272" r="14" fill="#a78bfa"/><circle cx="738" cy="272" r="14" fill="#ddd6fe"/><rect x="96" y="360" width="702" height="58" rx="12" fill="#f8fafc"/><rect x="126" y="382" width="300" height="12" rx="6" fill="#cbd5e1"/></svg>